<svg width="244" height="77" viewBox="0 0 244 77" fill="none" xmlns="http://www.w3.org/2000/svg">
<rect x="12" width="217" height="77" rx="10" fill="#FFEFB5"/>
<path d="M35.3758 32.16H37.1358V18.72H35.3758V32.16ZM52.9459 35.1C56.3459 35.1 57.7259 33.94 57.7259 32.16C57.7259 30.24 56.3859 29.64 54.5659 29.64H51.8459C51.2059 29.64 50.9059 29.5 50.9059 29C50.9059 28.7 51.0659 28.44 51.3259 28.24C51.8259 28.4 52.3659 28.48 52.9659 28.48C55.0859 28.48 56.7459 27.48 56.7459 25.36V25.16C56.7459 24.48 56.5459 23.92 56.1259 23.48H57.8259V22.2H54.4459C53.9859 22.08 53.5059 22.02 52.9859 22.02C50.7859 22.02 49.2059 23.2 49.2059 25.24V25.44C49.2059 26.56 49.6859 27.36 50.4459 27.84C49.6459 28.42 49.3059 29.02 49.3059 29.64C49.3059 30.32 49.7259 30.62 50.3059 30.84V30.94C49.2859 31.24 48.4459 31.88 48.4459 32.94C48.4459 34.42 49.9259 35.1 52.9459 35.1ZM52.9059 33.76C51.0459 33.76 50.2459 33.6 50.2459 32.7C50.2459 31.9 50.7659 31.48 51.4459 31.24H54.2459C55.5259 31.24 55.9459 31.62 55.9459 32.42C55.9459 33.42 55.1459 33.76 52.9059 33.76ZM52.9659 27.2C51.7059 27.2 50.9059 26.64 50.9059 25.4V25.1C50.9059 23.98 51.6659 23.3 52.9659 23.3C54.2259 23.3 55.0659 23.88 55.0659 25.14V25.44C55.0659 26.64 54.2859 27.2 52.9659 27.2ZM61.4459 32.16H63.1459V24.4C63.8459 23.94 64.7859 23.64 65.7259 23.64C65.8859 23.64 66.2059 23.66 66.4859 23.7V22.18C66.3859 22.14 66.1059 22.1 65.8659 22.1C64.7859 22.1 63.7059 22.66 63.1659 23.32H63.0659V22.22H61.4459V32.16ZM72.4875 32.34C73.8075 32.34 74.5875 31.88 75.0875 31.32H75.1875L75.3675 32.16H76.7275V24.96C76.7275 22.96 75.4675 22.02 73.2675 22.02C72.0675 22.02 71.1275 22.22 70.2275 22.56V23.78C70.8275 23.66 71.6275 23.5 72.6075 23.5C74.3875 23.5 75.0475 23.86 75.0475 25.38V26.3L72.4075 26.62C70.5275 26.86 69.4075 27.8 69.4075 29.52C69.4075 31.44 70.7075 32.34 72.4875 32.34ZM72.9075 31.02C71.8675 31.02 71.1675 30.52 71.1675 29.48C71.1675 28.4 71.7075 27.94 72.8475 27.82L75.0475 27.6V30.34C74.6075 30.74 73.7875 31.02 72.9075 31.02ZM84.9034 32.34C86.2234 32.34 87.1834 31.94 87.7634 31.36H87.8634L88.0234 32.16H89.4634V17.84H87.7634V22.64C87.2434 22.34 86.4434 22.02 85.2234 22.02C82.6834 22.02 80.8034 23.6 80.8034 27.22V27.5C80.8034 31.16 83.0034 32.34 84.9034 32.34ZM85.4634 30.94C83.7434 30.94 82.5834 30.12 82.5834 27.44V27C82.5834 24.4 83.6234 23.48 85.4434 23.48C86.4434 23.48 87.3434 23.72 87.7634 24.06V30.16C87.3434 30.5 86.5634 30.94 85.4634 30.94ZM97.1642 32.34C98.3642 32.34 99.3842 31.88 100.204 31.3H100.304L100.504 32.16H101.944V22.22H100.224V30.16C99.5242 30.52 98.6842 30.88 97.6642 30.88C96.2242 30.88 95.8042 30.36 95.8042 29.14V22.22H94.1242V29.42C94.1242 31.34 95.1842 32.34 97.1642 32.34ZM109.113 32.34C110.433 32.34 111.213 31.88 111.713 31.32H111.813L111.993 32.16H113.353V24.96C113.353 22.96 112.093 22.02 109.893 22.02C108.693 22.02 107.753 22.22 106.853 22.56V23.78C107.453 23.66 108.252 23.5 109.233 23.5C111.013 23.5 111.673 23.86 111.673 25.38V26.3L109.033 26.62C107.153 26.86 106.033 27.8 106.033 29.52C106.033 31.44 107.333 32.34 109.113 32.34ZM109.533 31.02C108.493 31.02 107.793 30.52 107.793 29.48C107.793 28.4 108.333 27.94 109.473 27.82L111.673 27.6V30.34C111.233 30.74 110.413 31.02 109.533 31.02ZM121.208 32.26C122.108 32.26 122.508 32.06 122.928 31.88V30.72C122.528 30.82 122.068 30.88 121.668 30.88C120.548 30.88 120.228 30.52 120.228 29.58V23.64H122.728V22.22H120.228V19.86H118.528V22.22H117.108V23.64H118.528V29.82C118.528 31.58 119.628 32.26 121.208 32.26ZM131.003 32.34C132.643 32.34 133.783 31.82 134.363 31.38V30.12C133.463 30.6 132.603 30.88 131.283 30.88C129.303 30.88 128.143 30.04 128.023 27.68H134.663V26.72C134.663 23.6 133.363 22.02 130.643 22.02C128.323 22.02 126.263 23.58 126.263 27.04V27.34C126.263 30.4 127.863 32.34 131.003 32.34ZM130.563 23.4C132.063 23.4 132.863 24.22 132.863 26.3H128.023C128.183 24.02 129.443 23.4 130.563 23.4ZM142.286 32.34C143.606 32.34 144.566 31.94 145.146 31.36H145.246L145.406 32.16H146.846V17.84H145.146V22.64C144.626 22.34 143.826 22.02 142.606 22.02C140.066 22.02 138.186 23.6 138.186 27.22V27.5C138.186 31.16 140.386 32.34 142.286 32.34ZM142.846 30.94C141.126 30.94 139.966 30.12 139.966 27.44V27C139.966 24.4 141.006 23.48 142.826 23.48C143.826 23.48 144.726 23.72 145.146 24.06V30.16C144.726 30.5 143.946 30.94 142.846 30.94ZM159.381 32.16H161.061V23.64H163.341V22.22H161.061V20.94C161.061 19.64 161.681 19.08 162.801 19.08C163.481 19.08 163.921 19.18 164.201 19.24V18.02C163.861 17.84 163.301 17.68 162.501 17.68C160.701 17.68 159.381 18.62 159.381 20.8V22.22H157.921V23.64H159.381V32.16ZM167.169 32.16H168.869V24.4C169.569 23.94 170.509 23.64 171.449 23.64C171.609 23.64 171.929 23.66 172.209 23.7V22.18C172.109 22.14 171.829 22.1 171.589 22.1C170.509 22.1 169.429 22.66 168.889 23.32H168.789V22.22H167.169V32.16ZM179.865 32.34C182.585 32.34 184.425 30.44 184.425 27.32V27C184.425 23.88 182.725 22.02 179.885 22.02C177.165 22.02 175.345 23.94 175.345 27.06V27.4C175.345 30.5 177.005 32.34 179.865 32.34ZM179.905 30.94C178.365 30.94 177.105 30.12 177.105 27.44V26.88C177.105 24.66 178.105 23.42 179.845 23.42C181.385 23.42 182.645 24.28 182.645 26.96V27.5C182.645 29.72 181.645 30.94 179.905 30.94ZM188.512 32.16H190.212V24.16C190.932 23.8 191.772 23.5 192.572 23.5C193.892 23.5 194.292 23.98 194.292 25.12V32.16H195.992V24.76C195.992 24.54 195.972 24.36 195.952 24.18C196.812 23.76 197.632 23.5 198.352 23.5C199.672 23.5 200.092 23.98 200.092 25.12V32.16H201.772V24.76C201.772 22.84 200.772 22.02 199.032 22.02C197.912 22.02 196.772 22.44 195.732 23.12H195.632C195.152 22.38 194.372 22.02 193.252 22.02C192.152 22.02 191.072 22.5 190.232 23.08H190.132V22.22H188.512V32.16ZM55.0068 56.4C58.2468 56.4 59.8668 54.9 59.8668 51.44V42.72H58.2468V51.36C58.2468 54.2 57.2068 55 55.0868 55C52.9468 55 51.7668 54.18 51.7668 51.38V42.72H50.0068V51.48C50.0068 54.82 51.8068 56.4 55.0068 56.4ZM63.2659 56.16H64.9459L66.2859 52.38H71.5259L72.8859 56.16H74.7259L69.8659 42.72H68.1659L63.2659 56.16ZM68.8459 45.08H68.9059L70.9859 50.88H66.8059L68.8459 45.08ZM78.6185 56.16H86.2985V54.66H80.3785V42.72H78.6185V56.16ZM97.5348 56.16H99.2548V46.22H97.5348V56.16ZM97.5348 44.26H99.2748V42.48H97.5348V44.26ZM104.026 56.16H105.726V48.16C106.446 47.82 107.466 47.5 108.346 47.5C109.906 47.5 110.286 47.98 110.286 49.12V56.16H111.966V48.76C111.966 46.84 111.046 46.02 109.086 46.02C107.866 46.02 106.586 46.48 105.746 47.08H105.646V46.22H104.026V56.16ZM124.165 56.16H131.845V54.66H125.925V42.72H124.165V56.16ZM139.688 56.34C142.408 56.34 144.248 54.44 144.248 51.32V51C144.248 47.88 142.548 46.02 139.708 46.02C136.988 46.02 135.168 47.94 135.168 51.06V51.4C135.168 54.5 136.828 56.34 139.688 56.34ZM139.728 54.94C138.188 54.94 136.928 54.12 136.928 51.44V50.88C136.928 48.66 137.928 47.42 139.668 47.42C141.208 47.42 142.468 48.28 142.468 50.96V51.5C142.468 53.72 141.468 54.94 139.728 54.94ZM148.335 56.16H150.035V48.16C150.755 47.82 151.775 47.5 152.655 47.5C154.215 47.5 154.595 47.98 154.595 49.12V56.16H156.275V48.76C156.275 46.84 155.355 46.02 153.395 46.02C152.175 46.02 150.895 46.48 150.055 47.08H149.955V46.22H148.335V56.16ZM164.46 56.34C165.78 56.34 166.74 55.94 167.32 55.36H167.42L167.58 56.16H169.02V41.84H167.32V46.64C166.8 46.34 166 46.02 164.78 46.02C162.24 46.02 160.36 47.6 160.36 51.22V51.5C160.36 55.16 162.56 56.34 164.46 56.34ZM165.02 54.94C163.3 54.94 162.14 54.12 162.14 51.44V51C162.14 48.4 163.18 47.48 165 47.48C166 47.48 166.9 47.72 167.32 48.06V54.16C166.9 54.5 166.12 54.94 165.02 54.94ZM177.641 56.34C180.361 56.34 182.201 54.44 182.201 51.32V51C182.201 47.88 180.501 46.02 177.661 46.02C174.941 46.02 173.121 47.94 173.121 51.06V51.4C173.121 54.5 174.781 56.34 177.641 56.34ZM177.681 54.94C176.141 54.94 174.881 54.12 174.881 51.44V50.88C174.881 48.66 175.881 47.42 177.621 47.42C179.161 47.42 180.421 48.28 180.421 50.96V51.5C180.421 53.72 179.421 54.94 177.681 54.94ZM186.288 56.16H187.988V48.16C188.708 47.82 189.728 47.5 190.608 47.5C192.168 47.5 192.548 47.98 192.548 49.12V56.16H194.228V48.76C194.228 46.84 193.308 46.02 191.348 46.02C190.128 46.02 188.848 46.48 188.008 47.08H187.908V46.22H186.288V56.16Z" fill="black"/>
</svg>
